<?xml version="1.0" encoding="iso-8859-1"?>
<!-- Generator: Adobe Illustrator 22.1.0, SVG Export Plug-In . SVG Version: 6.00 Build 0)  -->
<svg xmlns="http://www.w3.org/2000/svg" xmlns:xlink="http://www.w3.org/1999/xlink" version="1.1" id="Layer_1_1_" x="0px" y="0px" viewBox="0 0 64 64" style="enable-background:new 0 0 64 64;" xml:space="preserve" width="512" height="512">
<linearGradient id="SVGID_1_" gradientUnits="userSpaceOnUse" x1="32" y1="63" x2="32" y2="0.834">
	<stop offset="0" style="stop-color:#9F2FFF"/>
	<stop offset="1" style="stop-color:#0BB1D3"/>
</linearGradient>
<path style="fill:url(#SVGID_1_);" d="M61,61h2v2h-2V61z M3,61H1v2h2V61z M32,11c2.206,0,4,1.794,4,4s-1.794,4-4,4s-4-1.794-4-4  S29.794,11,32,11z M32,13c-1.103,0-2,0.897-2,2s0.897,2,2,2s2-0.897,2-2S33.103,13,32,13z M1,21.214  c0-1.099,0.585-2.132,1.527-2.695L32,0.834l29.474,17.685C62.415,19.082,63,20.115,63,21.214c0,1.147-0.596,2.17-1.595,2.735  c-0.487,0.276-1.019,0.414-1.55,0.414c-0.557,0-1.113-0.151-1.617-0.454L57,23.166V61h2v2H48H34h-4H16H5v-2h2V23.166l-1.238,0.743  c-0.985,0.592-2.169,0.606-3.167,0.04C1.596,23.384,1,22.361,1,21.214z M14,25h36c0.552,0,1-0.448,1-1s-0.448-1-1-1H14  c-0.552,0-1,0.448-1,1S13.448,25,14,25z M34,45v-2h-4v2H34z M36,41v4h3c0.552,0,1-0.448,1-1V32c0-0.552-0.448-1-1-1h-3v4h-8v-4h-3  c-0.552,0-1,0.448-1,1v12c0,0.552,0.448,1,1,1h3v-4H36z M21,49h4v-2h-4V49z M30,33h4v-2h-4V33z M39,49h4v-2h-4V49z M48,45  c0.352,0,0.686,0.072,1,0.184V27H15v18.184C15.314,45.072,15.648,45,16,45h6.184C22.072,44.686,22,44.352,22,44V32  c0-1.654,1.346-3,3-3h14c1.654,0,3,1.346,3,3v12c0,0.352-0.072,0.686-0.184,1H48z M25,59h-4v2h4V59z M30,61c0.552,0,1-0.448,1-1V48  c0-0.552-0.448-1-1-1h-3v4h-8v-4h-3c-0.552,0-1,0.448-1,1v12c0,0.552,0.448,1,1,1h3v-4h8v4H30z M43,59h-4v2h4V59z M48,61  c0.552,0,1-0.448,1-1V48c0-0.552-0.448-1-1-1h-3v4h-8v-4h-3c-0.552,0-1,0.448-1,1v12c0,0.552,0.448,1,1,1h3v-4h8v4H48z M55,21.966  l-23-13.8l-23,13.8V61h4v-1V48V26.816c-1.161-0.414-2-1.514-2-2.816c0-1.654,1.346-3,3-3h36c1.654,0,3,1.346,3,3  c0,1.302-0.839,2.402-2,2.816V48v12v1h4V21.966z M3,21.214c0,0.602,0.405,0.896,0.58,0.995c0.175,0.098,0.636,0.296,1.152-0.015  L32,5.834l27.268,16.36c0.518,0.311,0.978,0.112,1.152,0.015C60.595,22.11,61,21.815,61,21.214c0-0.399-0.213-0.775-0.555-0.98  L32,3.166L3.556,20.233C3.213,20.438,3,20.814,3,21.214z"/>
</svg>
